<svg width="938" height="868" xmlns="http://www.w3.org/2000/svg" xmlns:xlink="http://www.w3.org/1999/xlink" overflow="hidden"><defs><clipPath id="clip0"><rect x="1731" y="870" width="938" height="868"/></clipPath></defs><g clip-path="url(#clip0)" transform="translate(-1731 -870)"><path d="M123.213 258.518 130.235 277.878C149.172 331.795 185.309 385.188 264.168 385.188L460.845 385.188 443.264 337.221 287.589 337.221C255.512 337.221 238.425 319.462 222.561 287.882L524.077 287.882C502.04 402.282 394.045 489.13 264.168 489.13 118.376 489.13 0.190339 379.679 0.190339 244.643 0.190339 240.223 0.310971 235.853 0.552236 231.491L405.176 231.491 398.163 212.156C379.213 158.239 343.013 104.846 264.168 104.846L67.5397 104.846 85.0675 152.838 240.779 152.838C272.84 152.838 289.935 170.547 305.77 202.115L4.17085 202.115C25.8998 87.3617 134.04 0.13034 264.168 0.13034 409.968 0.13034 528.191 109.599 528.191 244.643 528.191 249.308 528.045 253.948 527.766 258.543Z" fill="#FFFFFF" fill-rule="evenodd" transform="matrix(1 0 0 -1 1935 1360)"/><path d="M22.7308 105.838 0.159185 105.838 0.159185 90.1808 22.7308 90.1808 22.7308 0.180233 45.1592 0.180233 45.1592 144.18 22.7308 144.18Z" fill="#FFFFFF" fill-rule="evenodd" transform="matrix(1 0 0 -1 1824 1602)"/><path d="M71.2266 95.8927C69.4153 105.722 61.3946 113.18 51.7606 113.18L37.4234 113.18 29.6216 113.18 0.154768 0.179087 22.7394 0.179087 48.0806 97.451 48.2414 97.451 73.5822 0.179087 96.1547 0.179087 90.4569 21.9992Z" fill="#FFFFFF" fill-rule="evenodd" transform="matrix(1 0 0 -1 1731 1571)"/><path d="M46.2579 105.838 23.1784 105.838 23.1784 144.18 0.258237 144.18 0.258237 0.180233 23.1784 0.180233 23.1784 90.1808 46.2579 90.1808Z" fill="#FFFFFF" fill-rule="evenodd" transform="matrix(1 0 0 -1 2622 1602)"/><path d="M86.7716 75.1842 64.1966 75.1842 64.1966 15.9572 47.0794 15.9572 47.0794 75.1842 24.4836 75.1842 24.4836 15.9572 0.193731 15.9572 0.193731 0.183946 135.194 0.183946 135.194 15.9572 86.7716 15.9572Z" fill="#FFFFFF" fill-rule="evenodd" transform="matrix(1 0 0 -1 2052 1591)"/><path d="M81.6102 24.8935 127.261 24.8935 127.261 40.4861 43.8646 40.4861C39.8702 40.4861 38.1752 43.3186 37.7336 47.2056L127.261 47.2056 127.261 62.8394 37.5879 62.8394 37.5879 69.5625 127.261 69.5625 127.261 85.1719 14.7649 85.1719 14.7649 46.2049C14.7649 34.4577 23.7818 24.8935 34.8644 24.8935L58.8161 24.8935 58.8161 15.7638 0.213009 15.7638 0.213009 0.171264 140.214 0.171264 140.214 15.7638 81.6102 15.7638Z" fill="#FFFFFF" fill-rule="evenodd" transform="matrix(1 0 0 -1 2206 1543)"/><path d="M53.1953 15.8926C34.7762 15.8926 22.9851 23.8458 22.9851 33.7106 22.9851 43.5378 34.7762 51.4913 53.1953 51.4913 71.6398 51.4913 83.4304 43.5378 83.4304 33.7106 83.4304 23.8458 71.6398 15.8926 53.1953 15.8926M53.1953 67.1815C20.8687 67.1815 0.212001 52.2018 0.212001 33.7106 0.212001 15.2071 20.8687 0.181492 53.1953 0.181492 85.5305 0.181492 106.212 15.2071 106.212 33.7106 106.212 52.2018 85.5305 67.1815 53.1953 67.1815" fill="#FFFFFF" fill-rule="evenodd" transform="matrix(1 0 0 -1 2223 1614)"/><path d="M69.5916 43.176 46.779 43.176 46.779 15.6429 0.230574 15.6429 0.230574 0.175631 134.231 0.175631 134.231 15.6429 69.5916 15.6429Z" fill="#FFFFFF" fill-rule="evenodd" transform="matrix(1 0 0 -1 2363 1543)"/><path d="M53.211 15.8926C34.7716 15.8926 22.9969 23.8458 22.9969 33.7106 22.9969 43.5378 34.7716 51.4913 53.211 51.4913 71.642 51.4913 83.4504 43.5378 83.4504 33.7106 83.4504 23.8458 71.642 15.8926 53.211 15.8926M53.211 67.1815C20.8807 67.1815 0.229665 52.2018 0.229665 33.7106 0.229665 15.2071 20.8807 0.181492 53.211 0.181492 85.5329 0.181492 106.23 15.2071 106.23 33.7106 106.23 52.2018 85.5329 67.1815 53.211 67.1815" fill="#FFFFFF" fill-rule="evenodd" transform="matrix(1 0 0 -1 2377 1614)"/><path d="M0.16883 70.4126 57.8139 70.4126 57.8139 61.1961 9.88212 61.1961 9.88212 45.4242 105.791 45.4242 105.791 38.601 9.88212 38.601 9.88212 21.821C9.88212 9.90227 18.8243 0.184176 29.8598 0.184176L128.427 0.184176 128.427 16.0019 38.2509 16.0019C34.2627 16.0019 32.9611 18.876 32.6583 22.8044L128.427 22.8044 128.427 61.1961 80.5239 61.1961 80.5239 70.4126 138.169 70.4126 138.169 86.1841 0.16883 86.1841Z" fill="#FFFFFF" fill-rule="evenodd" transform="matrix(1 0 0 -1 1896 1602)"/><path d="M53.1761 51.4833C71.5953 51.4833 83.4085 43.5058 83.4085 33.708 83.4085 23.8439 71.5953 15.8663 53.1761 15.8663 34.7319 15.8663 22.9436 23.8439 22.9436 33.708 22.9436 43.5058 34.7319 51.4833 53.1761 51.4833M53.1761 0.172821C85.4951 0.172821 106.176 15.2057 106.176 33.708 106.176 52.1937 85.4951 67.1729 53.1761 67.1729 20.8693 67.1729 0.175783 52.1937 0.175783 33.708 0.175783 15.2057 20.8693 0.172821 53.1761 0.172821" fill="#FFFFFF" fill-rule="evenodd" transform="matrix(1 0 0 -1 1912 1512)"/><path d="M85.8395 85.4705C90.5736 85.4705 94.3771 81.3808 94.3771 76.3394L94.3771 0.178288 117.197 0.178288 117.197 79.6447C117.197 91.5302 108.233 101.179 97.1072 101.179L0.196846 101.179 0.196846 85.4705 55.0334 85.4705Z" fill="#FFFFFF" fill-rule="evenodd" transform="matrix(1 0 0 -1 2062 1559)"/><path d="M83.014 46.5654C87.7536 46.5654 91.5491 42.5345 91.5491 37.54L91.5491 0.172683 114.232 0.172683 114.232 40.8436C114.232 52.5935 105.285 62.1733 94.2389 62.1733L0.231402 62.1733 0.231402 46.5654 52.3404 46.5654Z" fill="#FFFFFF" fill-rule="evenodd" transform="matrix(1 0 0 -1 2373 1520)"/><path d="M52.3905 113.181 29.9919 113.181 0.245514 0.180534 23.0403 0.180534 48.6372 97.4524 48.8414 97.4524 74.426 0.180534 97.2455 0.180534 72.0697 95.794C70.2682 105.673 62.1445 113.181 52.3905 113.181" fill="#FFFFFF" fill-rule="evenodd" transform="matrix(1 0 0 -1 2513 1571)"/><path d="M39.005 47.0476C37.8321 47.6682 36.6758 48.2806 35.4824 48.9842L27.2259 52.8246C26.4799 53.2386 25.7216 53.6526 24.9712 54.0414 19.3636 57.0294 15.9151 59.1029 15.9151 63.4152 15.9151 70.9843 24.0509 71.7997 27.4955 71.7997 36.7215 71.3609 44.3395 68.9356 48.0738 66.9742L50.0676 65.9271 50.0676 81.2105 47.5145 81.9181C42.383 83.2962 35.3539 85.1958 28.3614 85.1958 10.7217 85.1958 0.169152 76.7121 0.169152 62.5254 0.169152 49.8905 13.8716 43.2316 23.8936 38.3692L28.2247 36.25C33.9319 33.5272 39.3369 30.9114 39.3369 23.8638 39.3369 14.8213 29.945 13.4554 24.337 13.4554 14.8829 13.4554 8.29277 16.0916 4.34289 17.6602 3.76705 17.8794 3.25276 18.099 2.81368 18.2725L0.969206 18.9305 0.969206 4.03233 2.6726 3.59751C8.65771 2.06234 16.0932 0.195849 23.2221 0.195849 43.8338 0.195849 55.1695 9.03133 55.1695 25.1219 54.7675 38.6836 46.0472 43.3311 39.005 47.0476" fill="#FFFFFF" fill-rule="evenodd" transform="matrix(1 0 0 -1 1880 1738)"/><path d="M29.1309 48.9114C36.341 48.9114 39.8502 43.7642 40.3515 38.2369L15.3787 38.2369C16.8409 45.0501 21.7745 48.9114 29.1309 48.9114M29.4693 61.1984C11.3893 61.1984 0.177017 49.9865 0.177017 31.9902 0.177017 21.5309 4.5259 12.0468 11.8072 6.6064 17.1333 2.59618 25.6261 0.19816 34.4446 0.19816 41.4836 0.19816 47.7833 1.69477 52.7042 4.51029L53.3684 4.89871 53.3684 17.0367 51.2964 15.8585C46.4296 13.0308 39.7417 12.1542 37.8577 12.1542 25.4799 12.1542 18.0815 16.8177 15.7966 26.0742L55.1774 26.0742 55.1774 34.6941C54.8056 50.7885 44.7294 61.1984 29.4693 61.1984" fill="#FFFFFF" fill-rule="evenodd" transform="matrix(1 0 0 -1 1943 1738)"/><path d="M29.3561 48.9025C42.5768 48.9025 44.0081 36.0716 44.0081 30.5786 44.0081 25.1226 42.6065 12.4825 29.7852 12.4825 16.1053 12.4825 15.0402 26.2422 15.0402 30.4832 15.0402 34.7908 16.0673 48.9025 29.3561 48.9025M29.4526 61.1989C11.6773 61.1989 0.186038 49.1513 0.186038 30.4832 0.186038 11.7859 11.488 0.198712 29.6843 0.198712 47.8806 0.198712 59.1865 11.836 59.1865 30.5786 59.1865 49.4663 47.8133 61.1989 29.4526 61.1989" fill="#FFFFFF" fill-rule="evenodd" transform="matrix(1 0 0 -1 2008 1738)"/><path d="M36.4501 35.3564C36.3356 32.4394 36.0541 30.0966 35.613 27.783 34.3757 22.3027 30.9338 13.0855 21.9023 13.0855 14.8959 13.0855 13.9202 18.2955 13.9202 23.9088L13.9202 60.1985 0.188969 60.1985 0.188969 19.8894C0.188969 8.83703 8.58373 0.19837 19.2851 0.19837 28.7658 0.19837 33.89 4.3887 36.6869 9.15319L36.6869 1.40918 50.1892 1.40918 50.1892 60.1985 36.4501 60.1985Z" fill="#FFFFFF" fill-rule="evenodd" transform="matrix(1 0 0 -1 2078 1738)"/><path d="M0.0505543 0.128996 15.0511 0.128996 15.0511 83.1292 0.0505543 83.1292Z" fill="#FFFFFF" fill-rule="evenodd" transform="matrix(1 0 0 -1 2143 1737)"/><path d="M39.8738 20.8418 19.3812 83.1948 0.207884 83.1948 0.207884 0.194983 14.286 0.194983 14.286 56.6572 33.09 0.194983 46.2966 0.194983 65.1172 56.3407 65.1172 0.194983 79.208 0.194983 79.208 83.1948 60.1467 83.1948Z" fill="#FFFFFF" fill-rule="evenodd" transform="matrix(1 0 0 -1 2208 1737)"/><path d="M28.6488 48.9114C35.7264 48.9114 39.1976 43.7642 39.6775 38.2369L15.1497 38.2369C16.5774 45.0501 21.4067 48.9114 28.6488 48.9114M28.9606 61.1984C11.2353 61.1984 0.214481 49.9865 0.214481 31.9902 0.214481 21.5309 4.48592 12.0716 11.6578 6.6064 16.8606 2.59618 25.1776 0.19816 33.8922 0.19816 40.7731 0.19816 46.973 1.69477 51.7775 4.51029L52.4669 4.89871 52.4669 17.0367 50.4112 15.8585C45.6231 13.0308 39.0747 12.1542 37.2405 12.1542 25.0586 12.1542 17.7919 16.8177 15.5641 26.0742L54.2066 26.0742 54.2148 34.6941C53.8703 50.7885 43.9571 61.1984 28.9606 61.1984" fill="#FFFFFF" fill-rule="evenodd" transform="matrix(1 0 0 -1 2299 1738)"/><path d="M24.2933 80.2 9.79357 71.4316 9.79357 60.1077 0.223588 60.1077 0.223588 47.7054 9.79357 47.7054 9.79357 17.8989C9.79357 6.13953 16.2535 0.199537 28.9541 0.199537 31.3588 0.199537 34.1783 0.249601 38.7105 0.84677L39.8839 1.01677 39.8839 14.6386 38.1215 14.0994C34.7421 13.0293 32.7313 12.8053 30.625 12.8053 24.7372 12.8053 24.2933 16.5547 24.2933 22.2624L24.2933 47.7054 40.2238 47.7054 40.2238 60.1077 24.2933 60.1077Z" fill="#FFFFFF" fill-rule="evenodd" transform="matrix(1 0 0 -1 2362 1738)"/><path d="M19.1118 55.5909C17.4611 54.4657 15.989 52.8675 14.6708 50.7872L14.6708 58.9582 0.229993 58.9582 0.229993 0.199733 14.6708 0.199733 14.6708 24.4099C14.912 28.5286 15.2987 31.3811 15.8685 33.656 18.3341 43.7414 28.6419 45.8714 36.8459 45.8714L38.2305 45.8714 38.2305 60.1995 36.8459 60.1995C27.5028 60.1995 23.8146 58.7589 19.1118 55.5909" fill="#FFFFFF" fill-rule="evenodd" transform="matrix(1 0 0 -1 2417 1737)"/><path d="M28.8836 48.9025C41.8959 48.9025 43.3111 36.0716 43.3111 30.5786 43.3111 25.1226 41.9458 12.4825 29.3345 12.4825 15.8667 12.4825 14.8241 26.2422 14.8241 30.4832 14.8241 34.7908 15.8337 48.9025 28.8836 48.9025M28.9785 61.1989C11.5223 61.1989 0.234967 49.1513 0.234967 30.4832 0.234967 11.7859 11.3319 0.198712 29.2185 0.198712 47.105 0.198712 58.2351 11.836 58.2351 30.5786 58.2351 49.4663 47.0433 61.1989 28.9785 61.1989" fill="#FFFFFF" fill-rule="evenodd" transform="matrix(1 0 0 -1 2461 1738)"/></g></svg>