<svg width="487" height="118" xmlns="http://www.w3.org/2000/svg" xmlns:xlink="http://www.w3.org/1999/xlink" overflow="hidden"><defs><clipPath id="clip0"><rect x="396" y="301" width="487" height="118"/></clipPath></defs><g clip-path="url(#clip0)" transform="translate(-396 -301)"><path d="M425.148 356.599 426.867 351.854C431.51 338.649 440.372 325.563 459.68 325.563L507.843 325.563 503.542 337.315 465.418 337.315C457.563 337.315 453.368 341.665 449.489 349.397L522.317 349.404C516.926 321.881 490.948 301.007 459.683 301.007 424.511 301.007 396 327.417 396 360 396 361.083 396.037 362.157 396.1 363.227L494.217 363.217 492.495 367.963C487.852 381.168 478.99 394.25 459.683 394.25L411.519 394.25 415.808 382.497 453.942 382.497C461.797 382.497 465.984 378.15 469.868 370.42L397.011 370.42C402.321 398.03 428.352 418.993 459.683 418.993 494.853 418.993 523.362 392.583 523.362 360 523.362 358.855 523.317 357.719 523.249 356.59Z" fill="#FFFFFF"/><path d="M588.755 349.068 580.541 349.068 580.541 354.678 588.755 354.678 588.755 386.896 596.912 386.896 596.912 335.348 588.755 335.348 588.755 349.068Z" fill="#FFFFFF"/><path d="M572.868 341.531C572.322 338.046 569.368 335.446 565.842 335.348L557.846 335.348 547.212 375.731 555.371 375.731 564.508 340.965 564.576 340.965 573.721 375.731 581.866 375.731Z" fill="#FFFFFF"/><path d="M883 349.068 874.797 349.068 874.797 335.348 866.649 335.348 866.649 386.896 874.797 386.896 874.797 354.678 883 354.678 883 349.068Z" fill="#FFFFFF"/><path d="M693.412 356.282 685.268 356.282 685.268 377.391 679.106 377.391 679.106 356.282 670.954 356.282 670.954 377.391 662.198 377.391 662.198 383.012 710.866 383.012 710.866 377.391 693.412 377.391 693.412 356.282Z" fill="#FFFFFF"/><path d="M746.803 357.056 763.135 357.056 763.135 351.443 733.306 351.443C731.885 351.443 731.274 350.416 731.117 349.018L763.13 349.018 763.13 343.388 731.064 343.388 731.064 340.965 763.135 340.965 763.135 335.348 722.919 335.348 722.919 349.374C722.788 353.475 725.997 356.91 730.098 357.056L738.664 357.056 738.664 360.343 717.706 360.343 717.706 365.961 767.766 365.961 767.766 360.343 746.807 360.343Z" fill="#FFFFFF"/><path d="M742.734 367.425C731.179 367.425 723.794 372.807 723.794 379.436 723.794 386.065 731.179 391.441 742.734 391.441 754.288 391.441 761.682 386.057 761.682 379.436 761.682 372.815 754.292 367.425 742.734 367.425ZM742.734 385.807C736.145 385.807 731.93 382.961 731.93 379.436 731.93 375.911 736.146 373.055 742.734 373.055 749.321 373.055 753.538 375.905 753.538 379.436 753.538 382.967 749.326 385.807 742.734 385.807Z" fill="#FFFFFF"/><path d="M798.558 350.347 790.428 350.347 790.428 360.343 773.827 360.343 773.827 365.961 821.616 365.961 821.616 360.343 798.558 360.343 798.558 350.347Z" fill="#FFFFFF"/><path d="M797.717 367.425C786.151 367.425 778.774 372.807 778.774 379.436 778.774 386.065 786.151 391.441 797.717 391.441 809.284 391.441 816.668 386.057 816.668 379.436 816.668 372.815 809.276 367.425 797.717 367.425ZM797.717 385.807C791.123 385.807 786.913 382.961 786.913 379.436 786.913 375.911 791.127 373.055 797.717 373.055 804.308 373.055 808.521 375.905 808.521 379.436 808.521 382.967 804.304 385.807 797.717 385.807Z" fill="#FFFFFF"/><path d="M606.362 361.904 627.07 361.904 627.07 365.175 609.852 365.175 609.852 370.792 644.301 370.792 644.301 373.224 609.852 373.224 609.852 379.201C609.718 383.304 612.925 386.744 617.027 386.896L652.441 386.896 652.441 381.27 620.049 381.27C618.611 381.27 618.148 380.242 618.031 378.844L652.438 378.844 652.438 365.175 635.231 365.175 635.231 361.904 655.939 361.904 655.939 356.282 606.362 356.282Z" fill="#FFFFFF"/><path d="M631.149 354.818C642.705 354.818 650.096 349.434 650.096 342.814 650.096 336.193 642.705 330.809 631.149 330.809 619.592 330.809 612.204 336.183 612.204 342.814 612.204 349.444 619.599 354.818 631.149 354.818ZM631.149 336.427C637.736 336.427 641.958 339.289 641.958 342.81 641.958 346.33 637.736 349.195 631.149 349.195 624.561 349.195 620.345 346.338 620.345 342.81 620.345 339.281 624.558 336.427 631.149 336.427Z" fill="#FFFFFF"/><path d="M696.602 341.014C698.342 341.073 699.705 342.531 699.646 344.271 699.646 344.272 699.646 344.273 699.646 344.274L699.646 371.448 707.788 371.448 707.788 343.089C707.929 338.986 704.72 335.546 700.618 335.4L666.053 335.4 666.053 341.014Z" fill="#FFFFFF"/><path d="M806.969 340.965C808.706 341.018 810.072 342.469 810.019 344.206 810.019 344.21 810.019 344.214 810.019 344.217L810.019 357.67 818.151 357.67 818.151 343.035C818.287 338.938 815.086 335.503 810.99 335.348L777.314 335.348 777.314 340.965Z" fill="#FFFFFF"/><path d="M846.093 335.348 838.09 335.348 827.467 375.731 835.61 375.731 844.747 340.965 844.824 340.965 853.962 375.731 862.113 375.731 853.118 341.564C852.585 338.067 849.629 335.451 846.093 335.348Z" fill="#FFFFFF"/></g></svg>